<svg width="484" height="577" viewBox="0 0 484 577" fill="none" xmlns="http://www.w3.org/2000/svg">
<rect x="398" y="332" width="68" height="96" rx="27" fill="white" stroke="black" stroke-width="12"/>
<rect x="21" y="332" width="68" height="96" rx="27" fill="white" stroke="black" stroke-width="12"/>
<g filter="url(#filter0_d_43_2)">
<mask id="path-3-inside-1_43_2" fill="white">
<path fill-rule="evenodd" clip-rule="evenodd" d="M432 354.5V451.5V453H431.981C430.548 510.575 346.711 557 243.5 557C140.289 557 56.4523 510.575 55.0187 453H55V451.5V354.5V346H55.1944C59.7087 247.497 142.289 169 243.5 169C344.711 169 427.291 247.497 431.806 346H432V354.5Z"/>
</mask>
<path fill-rule="evenodd" clip-rule="evenodd" d="M432 354.5V451.5V453H431.981C430.548 510.575 346.711 557 243.5 557C140.289 557 56.4523 510.575 55.0187 453H55V451.5V354.5V346H55.1944C59.7087 247.497 142.289 169 243.5 169C344.711 169 427.291 247.497 431.806 346H432V354.5Z" fill="white"/>
<path d="M432 453V465H444V453H432ZM431.981 453V441H420.276L419.985 452.701L431.981 453ZM55.0187 453L67.0149 452.701L66.7236 441H55.0187V453ZM55 453H43V465H55V453ZM55 346V334H43V346H55ZM55.1944 346V358H66.657L67.1818 346.549L55.1944 346ZM431.806 346L419.818 346.549L420.343 358H431.806V346ZM432 346H444V334H432V346ZM444 451.5V354.5H420V451.5H444ZM444 453V451.5H420V453H444ZM431.981 465H432V441H431.981V465ZM243.5 569C296.756 569 345.589 557.047 381.709 537.094C417.439 517.358 443.107 488.251 443.978 453.299L419.985 452.701C419.422 475.323 402.455 498.217 370.105 516.086C338.146 533.74 293.455 545 243.5 545V569ZM43.0224 453.299C43.8927 488.251 69.5612 517.358 105.291 537.094C141.411 557.047 190.244 569 243.5 569V545C193.545 545 148.854 533.74 116.895 516.086C84.545 498.217 67.5782 475.323 67.0149 452.701L43.0224 453.299ZM55 465H55.0187V441H55V465ZM43 451.5V453H67V451.5H43ZM43 354.5V451.5H67V354.5H43ZM43 346V354.5H67V346H43ZM55.1944 334H55V358H55.1944V334ZM67.1818 346.549C71.3961 254.592 148.562 181 243.5 181V157C136.016 157 48.0213 240.401 43.207 345.451L67.1818 346.549ZM243.5 181C338.438 181 415.604 254.592 419.818 346.549L443.793 345.451C438.979 240.401 350.984 157 243.5 157V181ZM432 334H431.806V358H432V334ZM444 354.5V346H420V354.5H444Z" fill="black" mask="url(#path-3-inside-1_43_2)"/>
<mask id="path-5-inside-2_43_2" fill="white">
<path fill-rule="evenodd" clip-rule="evenodd" d="M393.973 358.259C393.991 357.674 394 357.088 394 356.5C394 305.966 327.067 265 244.5 265C161.933 265 95 305.966 95 356.5C95 357.088 95.009 357.674 95.0271 358.259C95.0091 358.503 95 358.751 95 359V443C95 443.29 95.0123 443.577 95.0365 443.861C95.0122 444.24 95 444.619 95 445C95 473.167 161.933 496 244.5 496C327.067 496 394 473.167 394 445C394 444.619 393.988 444.24 393.963 443.861C393.988 443.577 394 443.29 394 443V359C394 358.751 393.991 358.503 393.973 358.259Z"/>
</mask>
<path fill-rule="evenodd" clip-rule="evenodd" d="M393.973 358.259C393.991 357.674 394 357.088 394 356.5C394 305.966 327.067 265 244.5 265C161.933 265 95 305.966 95 356.5C95 357.088 95.009 357.674 95.0271 358.259C95.0091 358.503 95 358.751 95 359V443C95 443.29 95.0123 443.577 95.0365 443.861C95.0122 444.24 95 444.619 95 445C95 473.167 161.933 496 244.5 496C327.067 496 394 473.167 394 445C394 444.619 393.988 444.24 393.963 443.861C393.988 443.577 394 443.29 394 443V359C394 358.751 393.991 358.503 393.973 358.259Z" fill="url(#paint0_linear_43_2)"/>
<path d="M393.973 358.259L381.979 357.889L381.959 358.513L382.005 359.136L393.973 358.259ZM95.0271 358.259L106.995 359.136L107.041 358.513L107.021 357.889L95.0271 358.259ZM95.0365 443.861L107.012 444.63L107.069 443.735L106.993 442.841L95.0365 443.861ZM393.963 443.861L382.007 442.841L381.931 443.735L381.988 444.63L393.963 443.861ZM382 356.5C382 356.964 381.993 357.427 381.979 357.889L405.967 358.628C405.989 357.92 406 357.211 406 356.5H382ZM244.5 277C283.94 277 319.07 286.809 343.948 302.035C369.029 317.386 382 336.986 382 356.5H406C406 325.48 385.504 299.33 356.477 281.565C327.246 263.674 287.627 253 244.5 253V277ZM107 356.5C107 336.986 119.971 317.386 145.052 302.035C169.93 286.809 205.06 277 244.5 277V253C201.373 253 161.754 263.674 132.523 281.565C103.496 299.33 83 325.48 83 356.5H107ZM107.021 357.889C107.007 357.427 107 356.964 107 356.5H83C83 357.211 83.0109 357.92 83.0328 358.628L107.021 357.889ZM83.0592 357.382C83.0199 357.918 83 358.458 83 359H107C107 359.044 106.998 359.089 106.995 359.136L83.0592 357.382ZM83 359V443H107V359H83ZM83 443C83 443.631 83.0269 444.258 83.0799 444.881L106.993 442.841C106.998 442.896 107 442.949 107 443H83ZM83.0612 443.092C83.0205 443.726 83 444.362 83 445H107C107 444.876 107.004 444.753 107.012 444.63L83.0612 443.092ZM83 445C83 457.175 90.2529 466.964 99.2149 474.192C108.283 481.506 120.67 487.561 134.913 492.42C163.518 502.178 202.262 508 244.5 508V484C204.171 484 168.166 478.405 142.662 469.705C129.851 465.335 120.344 460.401 114.282 455.511C108.114 450.536 107 446.908 107 445H83ZM244.5 508C286.738 508 325.482 502.178 354.087 492.42C368.33 487.561 380.717 481.506 389.785 474.192C398.747 466.964 406 457.175 406 445H382C382 446.908 380.886 450.536 374.718 455.511C368.656 460.401 359.149 465.335 346.338 469.705C320.834 478.405 284.829 484 244.5 484V508ZM406 445C406 444.362 405.979 443.726 405.939 443.092L381.988 444.63C381.996 444.754 382 444.877 382 445H406ZM405.92 444.881C405.973 444.258 406 443.631 406 443H382C382 442.949 382.002 442.896 382.007 442.841L405.92 444.881ZM406 443V359H382V443H406ZM406 359C406 358.458 405.98 357.918 405.941 357.381L382.005 359.136C382.002 359.089 382 359.044 382 359H406Z" fill="black" mask="url(#path-5-inside-2_43_2)"/>
<mask id="path-7-inside-3_43_2" fill="white">
<path fill-rule="evenodd" clip-rule="evenodd" d="M198.078 298.52C208.928 296.788 220.358 295.683 232 295.232C235.98 295.078 239.985 295 244 295V306C229.857 306.005 215.855 306.949 202.788 308.778C189.685 310.613 177.779 313.301 167.75 316.691C157.721 320.08 149.766 324.104 144.339 328.532C139.386 332.573 136.627 336.879 136.182 341.243H136L124 341.243C124 337.182 125.388 333.148 128.111 329.243C129.46 327.308 131.137 325.405 133.134 323.547C139.165 317.936 148.004 312.838 159.147 308.544C170.29 304.25 183.519 300.844 198.078 298.52Z"/>
</mask>
<path fill-rule="evenodd" clip-rule="evenodd" d="M198.078 298.52C208.928 296.788 220.358 295.683 232 295.232C235.98 295.078 239.985 295 244 295V306C229.857 306.005 215.855 306.949 202.788 308.778C189.685 310.613 177.779 313.301 167.75 316.691C157.721 320.08 149.766 324.104 144.339 328.532C139.386 332.573 136.627 336.879 136.182 341.243H136L124 341.243C124 337.182 125.388 333.148 128.111 329.243C129.46 327.308 131.137 325.405 133.134 323.547C139.165 317.936 148.004 312.838 159.147 308.544C170.29 304.25 183.519 300.844 198.078 298.52Z" fill="black"/>
<path d="M232 295.232L231.536 283.241L232 295.232ZM198.078 298.52L199.969 310.37L198.078 298.52ZM244 295H256C256 288.373 250.627 283 244 283V295ZM244 306L244.004 318C250.63 317.998 256 312.626 256 306H244ZM202.788 308.778L201.124 296.894L202.788 308.778ZM167.75 316.691L171.592 328.059L167.75 316.691ZM144.339 328.532L151.925 337.83L144.339 328.532ZM136.182 341.243V353.243C142.338 353.243 147.495 348.585 148.12 342.46L136.182 341.243ZM136 341.243V329.243H136L136 341.243ZM124 341.243H112C112 344.426 113.264 347.478 115.515 349.728C117.765 351.979 120.817 353.243 124 353.243L124 341.243ZM128.111 329.243L137.954 336.107L137.954 336.107L128.111 329.243ZM133.134 323.547L141.308 332.332H141.308L133.134 323.547ZM159.147 308.544L154.832 297.347V297.347L159.147 308.544ZM231.536 283.241C219.447 283.709 207.539 284.858 196.186 286.67L199.969 310.37C210.317 308.718 221.269 307.656 232.464 307.223L231.536 283.241ZM244 283C239.831 283 235.671 283.081 231.536 283.241L232.464 307.223C236.289 307.075 240.14 307 244 307V283ZM256 306V295H232V306H256ZM243.996 294C229.337 294.005 214.779 294.983 201.124 296.894L204.452 320.663C216.931 318.916 230.377 318.005 244.004 318L243.996 294ZM201.124 296.894C187.455 298.808 174.795 301.643 163.908 305.322L171.592 328.059C180.763 324.96 191.914 322.418 204.452 320.663L201.124 296.894ZM163.908 305.322C153.143 308.961 143.711 313.557 136.752 319.234L151.925 337.83C155.821 334.651 162.3 331.199 171.592 328.059L163.908 305.322ZM136.752 319.234C130.454 324.373 125.133 331.305 124.244 340.026L148.12 342.46C148.121 342.453 148.318 340.773 151.925 337.83L136.752 319.234ZM136 353.243H136.182V329.243H136V353.243ZM124 353.243L136 353.243L136 329.243L124 329.243L124 353.243ZM118.267 322.379C114.399 327.927 112 334.311 112 341.243H136C136 340.054 136.376 338.369 137.954 336.107L118.267 322.379ZM124.961 314.761C122.43 317.115 120.169 319.652 118.267 322.379L137.954 336.107C138.75 334.965 139.843 333.696 141.308 332.332L124.961 314.761ZM154.832 297.347C142.849 301.965 132.496 307.751 124.961 314.761L141.308 332.332C145.834 328.122 153.159 323.712 163.462 319.742L154.832 297.347ZM196.186 286.67C180.984 289.097 166.915 292.691 154.832 297.347L163.462 319.742C173.665 315.81 186.054 312.591 199.969 310.37L196.186 286.67Z" fill="#797FA7" mask="url(#path-7-inside-3_43_2)"/>
<path d="M130 342V372" stroke="#797FA7" stroke-width="12" stroke-linecap="round"/>
</g>
<g filter="url(#filter1_d_43_2)">
<path d="M308.322 30.5233C326.044 40.4628 336 53.9435 336 68H335.586C351.124 77.561 365.528 89.5266 378.325 103.679C404.555 132.688 422.477 169.167 430.397 208.595C433.326 209.493 436.2 211.402 438.937 214.28C442.88 218.426 446.463 224.503 449.481 232.164C452.499 239.825 454.893 248.919 456.526 258.929C458.159 268.938 459 279.666 459 290.5H402.029L402.956 291.027C383.291 306.951 358.732 319.765 331 328.57C303.268 337.375 273.034 341.958 242.417 342C211.8 342.041 181.539 337.539 153.756 328.808C125.973 320.078 101.339 307.331 81.581 291.46L82.3838 291H80V290.5H25C25 279.666 25.8406 268.938 27.4739 258.929C29.1072 248.919 31.5011 239.825 34.519 232.164C37.5369 224.503 41.1197 218.426 45.0628 214.28C47.4644 211.755 49.9711 209.976 52.5282 208.971C60.4095 169.399 78.3617 132.78 104.675 103.679C117.472 89.5266 131.876 77.561 147.414 68H147C147 53.9435 156.956 40.4628 174.678 30.5233C192.401 20.5839 216.437 15 241.5 15C266.563 15 290.599 20.5839 308.322 30.5233Z" fill="url(#paint1_linear_43_2)"/>
<path d="M241.5 7.5C267.551 7.5 292.914 13.2828 311.99 23.9814C329.481 33.7913 341.563 47.7989 343.286 63.9932C358.001 73.5132 371.662 85.1275 383.889 98.6494L385.156 100.063C410.797 128.934 428.537 164.694 436.943 203.271C439.659 204.756 442.138 206.762 444.372 209.111L444.822 209.594C449.455 214.633 453.331 221.474 456.459 229.415L457.061 230.979C460.023 238.878 462.334 247.951 463.928 257.721L464.237 259.686C465.736 269.548 466.5 279.989 466.5 290.5V298H406.246C386.653 313.544 362.691 326.057 335.932 334.857L333.27 335.718C304.77 344.767 273.771 349.458 242.427 349.5C212.062 349.541 181.998 345.219 154.191 336.792L151.508 335.964C123.656 327.212 98.7057 314.476 78.3867 298.5H72.5V298H17.5V290.5C17.5 279.289 18.3696 268.155 20.0723 257.721L20.4004 255.776C22.0898 246.102 24.4917 237.156 27.541 229.415L28.1553 227.892C31.2759 220.347 35.0974 213.875 39.6279 209.111L40.1895 208.534C41.9534 206.757 43.8615 205.199 45.9121 203.937C54.3947 164.473 72.6379 127.928 99.1113 98.6494L100.36 97.2803C112.266 84.3421 125.498 73.1904 139.713 63.9932C141.436 47.7989 153.519 33.7914 171.01 23.9814L171.908 23.4844C190.878 13.1041 215.856 7.5 241.5 7.5Z" stroke="black" stroke-width="15"/>
</g>
<path d="M139.761 61.0237L140.226 122.791L149.831 202.564" stroke="black" stroke-width="15" stroke-linecap="round"/>
<path d="M343.07 60.0237L342.605 121.791L333 201.564" stroke="black" stroke-width="15" stroke-linecap="round"/>
<defs>
<filter id="filter0_d_43_2" x="45" y="169" width="397" height="408" filterUnits="userSpaceOnUse" color-interpolation-filters="sRGB">
<feFlood flood-opacity="0" result="BackgroundImageFix"/>
<feColorMatrix in="SourceAlpha" type="matrix" values="0 0 0 0 0 0 0 0 0 0 0 0 0 0 0 0 0 0 127 0" result="hardAlpha"/>
<feOffset dy="10"/>
<feGaussianBlur stdDeviation="5"/>
<feComposite in2="hardAlpha" operator="out"/>
<feColorMatrix type="matrix" values="0 0 0 0 0 0 0 0 0 0 0 0 0 0 0 0 0 0 0.25 0"/>
<feBlend mode="normal" in2="BackgroundImageFix" result="effect1_dropShadow_43_2"/>
<feBlend mode="normal" in="SourceGraphic" in2="effect1_dropShadow_43_2" result="shape"/>
</filter>
<filter id="filter1_d_43_2" x="0" y="0" width="484" height="377" filterUnits="userSpaceOnUse" color-interpolation-filters="sRGB">
<feFlood flood-opacity="0" result="BackgroundImageFix"/>
<feColorMatrix in="SourceAlpha" type="matrix" values="0 0 0 0 0 0 0 0 0 0 0 0 0 0 0 0 0 0 127 0" result="hardAlpha"/>
<feOffset dy="10"/>
<feGaussianBlur stdDeviation="5"/>
<feComposite in2="hardAlpha" operator="out"/>
<feColorMatrix type="matrix" values="0 0 0 0 0 0 0 0 0 0 0 0 0 0 0 0 0 0 0.25 0"/>
<feBlend mode="normal" in2="BackgroundImageFix" result="effect1_dropShadow_43_2"/>
<feBlend mode="normal" in="SourceGraphic" in2="effect1_dropShadow_43_2" result="shape"/>
</filter>
<linearGradient id="paint0_linear_43_2" x1="244.5" y1="265" x2="244.5" y2="496" gradientUnits="userSpaceOnUse">
<stop offset="0.591346" stop-color="#41497C"/>
<stop offset="1" stop-color="#7684E2"/>
</linearGradient>
<linearGradient id="paint1_linear_43_2" x1="459" y1="178.5" x2="25" y2="178.5" gradientUnits="userSpaceOnUse">
<stop offset="0.0001" stop-color="#ECF09E"/>
<stop offset="0.322115" stop-color="#FAD12B"/>
<stop offset="1" stop-color="#D4B639"/>
</linearGradient>
</defs>
</svg>
